<?xml version="1.0" encoding="UTF-8"?>
<svg version="1.1" xmlns="http://www.w3.org/2000/svg" width="512" height="512">
<path d="M0 0 C3.1875 1.8125 3.1875 1.8125 6 4 C6.51949219 4.38542969 7.03898437 4.77085938 7.57421875 5.16796875 C9.73961941 7.95036028 10.05609736 11.10597856 10.625 14.5 C11.55697392 19.80973959 11.55697392 19.80973959 13 25 C14.98 24.67 16.96 24.34 19 24 C18.95359375 23.05898437 18.9071875 22.11796875 18.859375 21.1484375 C18.52775432 9.70752389 18.52775432 9.70752389 20.8125 6.25 C23.89527398 3.07914676 25.40770321 2.05731904 29.875 1.625 C33.05440343 1.70682288 34.03293521 2.02004752 36.875 3.75 C40.31086764 7.3879775 41.02028118 8.74256692 40.9375 13.875 C40.02337491 19.78927919 36.08928112 22.91071888 32 27 C31.67 27.66 31.34 28.32 31 29 C34.2453127 28.27290804 34.2453127 28.27290804 35.75 25.1875 C38.3837532 21.45634963 40.62605874 19.3753995 45 18 C49.36380694 17.69777688 52.77750925 18.23594328 56.5 20.5625 C58.59835576 23.97232811 59.19156326 27.00909869 59 31 C57.28168094 35.34633643 54.10637826 38.75867003 50 41 C46.36350677 41.97173511 42.7348775 42.5547388 39 43 C39.33 44.65 39.66 46.3 40 48 C41.30324219 47.98646484 41.30324219 47.98646484 42.6328125 47.97265625 C51.78823749 48.2081985 51.78823749 48.2081985 55.1640625 50.4140625 C58.25351438 53.86876978 60.20170186 57.26000619 60 62 C58.00773389 65.69992277 56.50497559 67.66334961 53 70 C48.32884582 70.76517954 44.85486627 70.46775702 40.6875 68.1875 C39.800625 67.465625 38.91375 66.74375 38 66 C36.824375 65.13375 36.824375 65.13375 35.625 64.25 C34.820625 63.63125 34.820625 63.63125 34 63 C34.34386332 70.26411263 36.00844892 74.61761533 40 80.625 C41.0037319 82.19068386 42.00631738 83.75710319 43.0078125 85.32421875 C43.51086914 86.10200684 44.01392578 86.87979492 44.53222656 87.68115234 C45.93068249 89.8904894 47.25565895 92.12559561 48.5546875 94.39453125 C48.94785156 95.07757324 49.34101563 95.76061523 49.74609375 96.46435547 C50.47817821 97.74392004 51.20263649 99.02788992 51.91796875 100.31689453 C54.0921132 104.05973876 56.04961214 106.18425336 60 108 C62.12042756 108.1576585 62.12042756 108.1576585 64 107 C67.35537417 103.32922066 68.983376 99.82906296 70.6875 95.1875 C74.64712183 85.26643314 81.44575525 80.15720692 91 76 C93.88251623 74.96163529 96.7924476 74.10947783 99.75 73.3125 C100.53858398 73.09827393 101.32716797 72.88404785 102.13964844 72.66333008 C108.43483308 71.02013008 114.48520562 70.13259419 121 70 C122.00160156 69.94972656 123.00320313 69.89945312 124.03515625 69.84765625 C148.22516901 69.1268573 179.44144879 73.98485772 198 91 C203.8330882 98.56894019 204.15946121 107.84115527 203 117 C196.45823958 138.12666889 168.68215674 156.28823003 150.2734375 166.29296875 C149.19320313 166.85628906 148.11296875 167.41960937 147 168 C145.96101563 168.55300781 144.92203125 169.10601562 143.8515625 169.67578125 C128.81562411 177.46432003 112.61518967 182.97724834 95.6171875 178.3515625 C90.48666556 176.15851587 87.36446465 172.34191099 83.95703125 168.0234375 C81.77545397 165.76783465 79.96110383 164.95123543 77 164 C60.63299947 177.46821297 50.83218132 193.10269291 43.02685547 212.51098633 C41.69595743 215.73697433 40.24835236 218.90425199 38.77661133 222.06811523 C37.63735684 224.90210477 37.44259953 227.00397245 38 230 C39.87501931 232.37719693 39.87501931 232.37719693 42 234 C41.814375 233.154375 41.62875 232.30875 41.4375 231.4375 C40.94170766 227.54198876 40.96377089 224.79950673 42 221 C45.05800793 217.65075322 47.17251192 216.21776002 51.5625 215.0625 C55.10651323 214.9980634 57.00558326 215.11779519 60 217 C62.27890281 221.16049691 61.99968655 224.09209612 61.1875 228.6875 C60.99542969 229.82574219 60.80335938 230.96398437 60.60546875 232.13671875 C60 235 60 235 59 237 C60.65 237.33 62.3 237.66 64 238 C64.33773438 237.50628906 64.67546875 237.01257813 65.0234375 236.50390625 C65.46945312 235.86324219 65.91546875 235.22257813 66.375 234.5625 C67.03628906 233.60537109 67.03628906 233.60537109 67.7109375 232.62890625 C69.39159303 230.50516881 70.49817373 230.06317957 73.171875 229.7265625 C80.99477231 229.41838776 80.99477231 229.41838776 84.5625 232.1875 C88.08912656 236.25668449 88.08912656 236.25668449 88 240 C86.38759346 245.10595405 84.68287267 248.29434023 80 251 C77.29743815 251.5927552 74.7759745 251.81179834 72 252 C71.34 253.65 70.68 255.3 70 257 C70.68707031 256.95359375 71.37414062 256.9071875 72.08203125 256.859375 C72.98308594 256.82328125 73.88414062 256.7871875 74.8125 256.75 C75.70582031 256.70359375 76.59914063 256.6571875 77.51953125 256.609375 C80 257 80 257 81.765625 258.7734375 C83.59446977 262.07230306 84.22168879 265.27419803 84 269 C82.5 272.4375 82.5 272.4375 80 275 C76.06696827 276.03500835 73.86351156 276.28783719 70 275 C69.9175 276.0725 69.835 277.145 69.75 278.25 C69 282 69 282 67.4375 284.4375 C64.59845925 286.25739791 62.3334447 286.62177914 58.96875 286.46484375 C55.6463832 285.68039603 54.04493569 283.60264542 52 281 C50.64560332 278.29120665 50.93498549 275.99066732 51 273 C50.01 272.67 49.02 272.34 48 272 C47.95875 273.216875 47.9175 274.43375 47.875 275.6875 C47.40692978 279.29741139 46.9578974 280.04929085 44.4375 283 C39.99845071 285.58271959 38.05803242 285.65264934 33 285 C30.79296875 283.796875 30.79296875 283.796875 29 282 C27.96815745 277.53105435 28.07616765 272.86364796 30.12890625 268.72265625 C31.5 266.8125 31.5 266.8125 34 264 C33.505 263.05125 33.01 262.1025 32.5 261.125 C31 258 31 258 31 256 C30.12988281 255.71769531 29.25976562 255.43539062 28.36328125 255.14453125 C8.14107966 248.26287612 8.14107966 248.26287612 1.875 241.8125 C-0.00762391 235.76120887 1.4881543 229.98707551 3.8125 224.25 C7.3646034 215.28516762 8.44092016 205.47103406 10 196 C8.86691406 196.680625 8.86691406 196.680625 7.7109375 197.375 C-1.53508335 202.91728339 -8.37908541 206.58507415 -19.3125 206.5625 C-20.29927734 206.56443359 -21.28605469 206.56636719 -22.30273438 206.56835938 C-32.70228139 206.35373458 -42.42271981 203.942873 -52.4375 201.3125 C-58.06446448 199.88067618 -62.54097227 199.11475002 -68.125 201.125 C-71.58881377 203.38400898 -73.5157387 205.71200711 -76 209 C-73.48277952 210.67814699 -71.24480445 211.85246524 -68.5 213.06640625 C-42.97218541 224.59855512 -42.97218541 224.59855512 -37 236 C-34.85236371 242.44290888 -34.72790207 249.80181023 -37.24609375 256.1328125 C-39.7299604 260.43512193 -42.57422295 264.42176836 -45.50390625 268.42578125 C-45.91842041 269.00126709 -46.33293457 269.57675293 -46.76000977 270.16967773 C-47.94149497 271.79453975 -49.15745875 273.39416461 -50.375 274.9921875 C-52.3410813 278.63132836 -52.1162143 280.0905796 -51 284 C-50.82339844 284.69867188 -50.64679688 285.39734375 -50.46484375 286.1171875 C-50.29082031 286.69726562 -50.11679687 287.27734375 -49.9375 287.875 C-49.4734375 289.421875 -49.4734375 289.421875 -49 291 C-48.34 290.67 -47.68 290.34 -47 290 C-42.14922648 288.38307549 -37.902599 288.15440044 -33.1875 290.25 C-30.22177036 292.62258371 -28.27339555 294.59884781 -27.53125 298.40234375 C-27.47683495 302.81676475 -27.53514969 305.28819797 -30 309.0625 C-37.31529696 313.78696262 -44.93770823 311.62589551 -53 310 C-55.36980013 312.95377498 -55.36980013 312.95377498 -55 317 C-52.60414714 319.64587234 -52.60414714 319.64587234 -50 322 C-48.39039759 325.21920482 -48.53841874 328.50888539 -49 332 C-50.82907489 335.72849882 -52.39869136 337.58576516 -55.8125 339.9375 C-59.81429051 341.27143017 -61.96552592 341.24701926 -66 340 C-69.91869974 336.62528429 -71.79770327 333.0054849 -72.31640625 327.86328125 C-72.39761719 326.69152344 -72.47882813 325.51976562 -72.5625 324.3125 C-72.64628906 323.13300781 -72.73007813 321.95351563 -72.81640625 320.73828125 C-72.87699219 319.83464844 -72.93757812 318.93101562 -73 318 C-73.99 318 -74.98 318 -76 318 C-76.165 319.010625 -76.33 320.02125 -76.5 321.0625 C-77.98481455 326.18615585 -81.51728817 329.30564596 -86 332 C-89.25307658 332.99084534 -90.50339936 332.74517719 -94 332 C-97.1577808 329.17815333 -98.66414818 327.00755546 -100 323 C-100 318.9956772 -99.33051673 317.29014127 -97 314 C-89.50684932 308 -89.50684932 308 -86 308 C-86 307.34 -86 306.68 -86 306 C-86.50789062 306.34933594 -87.01578125 306.69867188 -87.5390625 307.05859375 C-95.01416431 312 -95.01416431 312 -100 312 C-103.87821689 310.70726104 -105.57664476 309.60089131 -107.9375 306.25 C-109.23267866 302.28827703 -109.11258463 300.00530465 -108 296 C-105.58480623 292.66152962 -104.20296636 292.04320167 -100.109375 291.171875 C-98.65807173 291.01355101 -97.20469188 290.8733661 -95.75 290.75 C-95.00492188 290.67265625 -94.25984375 290.5953125 -93.4921875 290.515625 C-91.66300372 290.32801641 -89.83164126 290.16186597 -88 290 C-88.33 289.01 -88.66 288.02 -89 287 C-90.99405782 286.50965791 -92.98915748 286.0226096 -94.9921875 285.5703125 C-98.05895723 284.6992067 -99.27763416 283.68689071 -101 281 C-102.18705361 276.59800954 -102.53404621 273.22067704 -100.6875 269 C-98.72713523 266.67660471 -97.79861926 266.08622261 -94.79296875 265.76171875 C-87.77525253 265.56181379 -87.77525253 265.56181379 -84.125 267.625 C-81.76749376 270.25985992 -79.84804318 272.98837408 -78 276 C-74.66788429 268.46652101 -72.70475512 262.3066005 -75 254 C-75.94359375 254.02320313 -76.8871875 254.04640625 -77.859375 254.0703125 C-93.37276168 254.28837215 -107.43786907 251.73666164 -121.21484375 244.25390625 C-124.28814432 242.87027444 -125.10078163 242.75150401 -128.1875 243.875 C-129.05890625 244.17792969 -129.9303125 244.48085938 -130.828125 244.79296875 C-131.87484375 245.19128906 -132.9215625 245.58960938 -134 246 C-152.79681549 253.14415906 -171.84925582 258.91756761 -191.32055664 263.95141602 C-237.72447107 275.56231816 -237.72447107 275.56231816 -273 306 C-283.11225079 323.70777549 -284.47483308 342.96303701 -279.38671875 362.52734375 C-275.10124699 377.22449859 -267.36805375 389.20012436 -253.69921875 396.71484375 C-241.16545117 402.68244076 -228.21264151 403.36527455 -214.60546875 401.40234375 C-211 401 -211 401 -208.125 402.25 C-205.29427425 404.58118591 -204.0872683 406.19713168 -203.6875 409.875 C-204.05699887 413.56998868 -204.56490004 415.18441568 -207 418 C-215.52035386 422.53290349 -224.99025353 422.18246526 -234.375 422.1875 C-235.56867188 422.19974609 -236.76234375 422.21199219 -237.9921875 422.22460938 C-254.19200741 422.25148961 -269.01846789 416.75650518 -280.875 405.5 C-301.59756004 383.70415996 -309.61248925 360.83003899 -309.2734375 330.796875 C-309.04889366 322.6910647 -307.74137517 315.6709697 -305 308 C-304.76394043 307.31824707 -304.52788086 306.63649414 -304.28466797 305.93408203 C-297.61564475 287.0105674 -285.62672488 269.65158132 -270 257 C-268.75283203 255.90558594 -268.75283203 255.90558594 -267.48046875 254.7890625 C-261.64387835 249.76241383 -255.93925771 246.08678469 -248.94482422 242.89892578 C-246.71045569 241.86616845 -244.49813686 240.79267077 -242.28515625 239.71484375 C-229.2864241 233.40240238 -216.15863955 227.3901851 -202.97387695 221.47875977 C-196.04871519 218.3646486 -189.17557706 215.16364863 -182.37109375 211.79296875 C-181.72028336 211.47322586 -181.06947296 211.15348297 -180.39894104 210.8240509 C-174.58902128 207.91396839 -169.43920261 204.78067973 -165 200 C-165.43737812 198.54032806 -165.87491183 197.08070274 -166.3125 195.62109375 C-166.58707031 194.70440918 -166.86164063 193.78772461 -167.14453125 192.84326172 C-167.67955978 191.06502477 -168.21805607 189.28782328 -168.76171875 187.51220703 C-172.55982426 175.09049292 -175.32154632 162.88286815 -177 150 C-181.26495734 152.01857773 -185.05568524 154.29375556 -188.875 157.0625 C-190.32519531 158.10083984 -190.32519531 158.10083984 -191.8046875 159.16015625 C-192.52914062 159.76730469 -193.25359375 160.37445313 -194 161 C-194 161.66 -194 162.32 -194 163 C-193.236875 163.556875 -192.47375 164.11375 -191.6875 164.6875 C-188.32649403 167.57952839 -187.27142898 169.7619034 -186 174 C-185.70201661 178.6099783 -186.39404782 181.24665405 -189.3125 184.875 C-194.22918271 188.76260958 -197.68244184 189.56744534 -204 189 C-207.92947849 188.19624304 -208.78215298 187.31539046 -211.09375 183.96875 C-213.42823066 179.73082841 -213.66018845 175.82659462 -213.75 171.0625 C-213.77964844 170.28326172 -213.80929688 169.50402344 -213.83984375 168.70117188 C-213.90977701 166.80131823 -213.95724051 164.9006594 -214 163 C-219.2141322 164.96175271 -221.97656957 166.86414519 -224.4375 172 C-226.24966275 175.47935247 -227.6389004 176.98334024 -231 179 C-234.82138897 180.06192756 -237.97078964 180.2744561 -241.8125 179.25 C-245.31567517 177.24818562 -246.71319152 175.86042544 -248 172 C-248.3823833 167.33492377 -248.47936179 164.95872359 -246.375 160.75 C-241.9480912 155.6241056 -237.41081571 153.53859577 -231 152 C-230.505 149.03 -230.505 149.03 -230 146 C-231.134375 146.350625 -232.26875 146.70125 -233.4375 147.0625 C-239.35713697 148.52141762 -244.52234624 148.23882688 -250 145.5 C-252.87724136 141.9034483 -253.30049647 138.54805466 -253 134 C-251.64913319 130.97663142 -250.32414606 129.32414606 -248 127 C-243.3622469 126.18800282 -238.80234782 125.97519396 -234.63671875 128.34375 C-232.5625 130 -232.5625 130 -230.75390625 131.6875 C-228.83134339 133.39942916 -228.83134339 133.39942916 -225 133 C-225 132.01 -225 131.02 -225 130 C-226.093125 129.731875 -227.18625 129.46375 -228.3125 129.1875 C-233.09355693 127.6478376 -233.09355693 127.6478376 -235 125 C-236.24983344 121.25049967 -236.61488111 117.88692703 -236 114 C-233.65486726 109.62241888 -233.65486726 109.62241888 -231 108 C-227.50430801 107.20344068 -224.50089987 107.24445159 -221 108 C-216.30262422 111.1982133 -214.38288552 115.62585954 -213 121 C-213 121.99 -213 122.98 -213 124 C-212.01 124 -211.02 124 -210 124 C-210.99 122.3603125 -210.99 122.3603125 -212 120.6875 C-214.5586769 115.55186994 -214.90006478 110.63864115 -214 105 C-212.19881522 101.99802536 -211.09667268 100.54833634 -208 99 C-200.99102334 98.31059246 -200.99102334 98.31059246 -197.125 101 C-194.49054474 104.71923096 -193.83087545 107.5434862 -193 112 C-192.50371094 111.29875 -192.00742188 110.5975 -191.49609375 109.875 C-178.83853316 92.19764783 -178.83853316 92.19764783 -173 91 C-164.74600555 90.49347872 -158.02664369 94.26381421 -151.87109375 99.578125 C-144.48112829 106.42138083 -138.8765964 114.22786928 -134 123 C-133.37351563 124.12664062 -132.74703125 125.25328125 -132.1015625 126.4140625 C-126.53509923 137.37683515 -123.79807252 149.07906139 -121 161 C-120.01 161 -119.02 161 -118 161 C-109.86951815 152.12166722 -103.72769895 140.55087463 -97.3515625 130.3671875 C-86.32202856 113.08970947 -72.18053932 100.61069403 -52 95.1875 C-35.87039009 91.98459292 -19.97670663 93.06724826 -3.77758789 94.96923828 C-1.91734985 95.18555908 -1.91734985 95.18555908 -0.01953125 95.40625 C1.09317139 95.54353516 2.20587402 95.68082031 3.35229492 95.82226562 C5.97625631 96.22275327 5.97625631 96.22275327 8 95 C8.42130907 92.75401951 8.42130907 92.75401951 8 90 C6.73003901 88.5672235 5.45928105 87.13511789 4.1796875 85.7109375 C1.42940958 81.72212383 1.93336692 76.58707886 2.12890625 71.9296875 C2.59692045 66.33352057 2.59692045 66.33352057 0.890625 61.1953125 C-0.62203422 59.70814457 -0.62203422 59.70814457 -3 58 C-3 57.34 -3 56.68 -3 56 C-3.81791016 56.6496875 -3.81791016 56.6496875 -4.65234375 57.3125 C-9.39297405 60.81327315 -12.934103 62.90059908 -18.921875 62.4609375 C-22.28050643 61.7159779 -24.44069594 60.24719381 -27 58 C-29.72872118 53.5869992 -29.79206163 49.03816524 -29 44 C-25.94632933 39.68893553 -22.99925965 38.34503891 -18 37 C-14.3515625 36.8046875 -14.3515625 36.8046875 -10.625 36.875 C-9.37976563 36.89304688 -8.13453125 36.91109375 -6.8515625 36.9296875 C-5.91054688 36.95289063 -4.96953125 36.97609375 -4 37 C-3.34 34.03 -2.68 31.06 -2 28 C-2.70125 27.773125 -3.4025 27.54625 -4.125 27.3125 C-9.03645568 25.07031371 -12.97207326 22.07920539 -15 17 C-15.57903708 12.79634117 -15.42411894 9.08385951 -13.875 5.125 C-10.06684882 0.80909533 -5.67544727 -0.82766939 0 0 Z " fill="#1DA1F2" transform="translate(309,45)"/>
</svg>
